P3
6 6
255
0 0 0
0 0 0
255 255 0
0 0 0
0 0 0
0 0 0
0 0 0
0 0 0
255 255 0
0 0 0
0 0 0
128 0 128
0 0 0
0 0 0
255 255 0
255 0 0
255 0 0
128 0 128
0 0 255
0 0 255
0 0 255
0 128 0
0 0 0
128 0 128
0 0 0
0 0 0
0 0 0
0 128 0
255 69 0
255 69 0
0 0 0
0 0 0
0 0 0
0 0 0
0 0 0
0 0 0
